# xmcd CD database file
#
# Track frame offsets:
#	150
#	19228
#	47738
#	64698
#	91069
#	120987
#	141547
#	160890
#	187527
#	216363
#	237943
#	261054
#	280589
#
# Disc length: 4008 seconds
#
# Revision: 2
# Processed by: cddbd v1.5.1PL0 Copyright (c) Steve Scherf et al.
# Submitted via: CDex 1.51
#
DISCID=ad0fa60d
DTITLE=J.R.Clark - I Shoulda Listened to my Conscience
DYEAR=2004
DGENRE=Blues
TTITLE0=I Lost My Job
TTITLE1=I Shoulda Listened to my Conscience
TTITLE2=Lookin' For A Lover
TTITLE3=She's In Love With  Married Man
TTITLE4=Let's Go Out Tonight
TTITLE5=Hearbreaker
TTITLE6=Life of a Bluesman
TTITLE7=Hell Hound
TTITLE8=Terrible State
TTITLE9=Hard to Explain
TTITLE10=Promised Land
TTITLE11=Goin to Chicago
TTITLE12=Trouble
EXTD=YEAR: 2004
EXTT0=
EXTT1=
EXTT2=
EXTT3=
EXTT4=
EXTT5=
EXTT6=
EXTT7=
EXTT8=
EXTT9=
EXTT10=
EXTT11=
EXTT12=
PLAYORDER=
